<svg width="40" height="40" viewBox="0 0 40 40" fill="none" xmlns="http://www.w3.org/2000/svg">
<path fill-rule="evenodd" clip-rule="evenodd" d="M20 40C31.046 40 40 31.046 40 20C40 8.954 31.046 0 20 0C8.954 0 0 8.954 0 20C0 31.046 8.954 40 20 40ZM20 14C21.0609 14 22.0783 13.5786 22.8284 12.8284C23.5786 12.0783 24 11.0609 24 10C24 8.93913 23.5786 7.92172 22.8284 7.17157C22.0783 6.42143 21.0609 6 20 6C18.9391 6 17.9217 6.42143 17.1716 7.17157C16.4214 7.92172 16 8.93913 16 10C16 11.0609 16.4214 12.0783 17.1716 12.8284C17.9217 13.5786 18.9391 14 20 14ZM8.586 14.62C8.22271 14.479 7.81881 14.4849 7.45979 14.6365C7.10078 14.788 6.81485 15.0734 6.66254 15.4321C6.51022 15.7908 6.50348 16.1947 6.64374 16.5582C6.784 16.9218 7.06025 17.2165 7.414 17.38L7.418 17.382L7.422 17.384L7.442 17.392L7.506 17.42C7.88423 17.5778 8.26564 17.7278 8.65 17.87C9.41 18.16 10.478 18.546 11.704 18.93C13.68 19.554 16.176 20.21 18.5 20.426V22.906C18.5 23.766 18.252 24.612 17.786 25.338L12.738 33.188C12.6314 33.3537 12.5584 33.5388 12.5233 33.7328C12.4882 33.9267 12.4917 34.1256 12.5335 34.3182C12.5752 34.5108 12.6546 34.6933 12.7669 34.8552C12.8792 35.0171 13.0223 35.1554 13.188 35.262C13.3537 35.3686 13.5388 35.4416 13.7328 35.4767C13.9267 35.5118 14.1256 35.5083 14.3182 35.4665C14.5108 35.4248 14.6933 35.3454 14.8552 35.2331C15.0171 35.1208 15.1554 34.9777 15.262 34.812L20.002 27.44L24.738 34.812C24.8446 34.9777 24.9829 35.1208 25.1448 35.2331C25.3067 35.3454 25.4892 35.4248 25.6818 35.4665C25.8744 35.5083 26.0733 35.5118 26.2672 35.4767C26.4612 35.4416 26.6463 35.3686 26.812 35.262C26.9777 35.1554 27.1208 35.0171 27.2331 34.8552C27.3454 34.6933 27.4248 34.5108 27.4665 34.3182C27.5083 34.1256 27.5118 33.9267 27.4767 33.7328C27.4416 33.5388 27.3686 33.3537 27.262 33.188L22.214 25.338C21.7475 24.6119 21.4997 23.767 21.5 22.904V20.426C23.824 20.21 26.32 19.554 28.298 18.93C29.7162 18.4826 31.1159 17.9788 32.494 17.42L32.56 17.392L32.58 17.384L32.584 17.382C32.9438 17.2225 33.2265 16.9281 33.3711 16.5621C33.5158 16.1961 33.5109 15.7879 33.3574 15.4256C33.2039 15.0632 32.9141 14.7757 32.5506 14.625C32.187 14.4743 31.7789 14.4725 31.414 14.62L31.4 14.626L31.346 14.648L31.126 14.738C29.9003 15.2281 28.6568 15.6724 27.398 16.07C25.042 16.81 22.222 17.5 20 17.5C17.778 17.5 14.96 16.81 12.604 16.07C11.2698 15.6481 9.95277 15.1738 8.656 14.648L8.6 14.626L8.586 14.62Z" fill="#F0F4F9"/>
</svg>
