<svg width="16" height="15" viewBox="0 0 16 15" fill="none" xmlns="http://www.w3.org/2000/svg">
<path d="M0.781367 14.5H15.2186C15.8186 14.5 16.1925 13.8545 15.8965 13.3335L8.67395 0.890589C8.6061 0.771945 8.50802 0.673323 8.38966 0.604727C8.2713 0.536131 8.13687 0.5 8 0.5C7.86313 0.5 7.7287 0.536131 7.61034 0.604727C7.49198 0.673323 7.3939 0.771945 7.32605 0.890589L0.103524 13.3335C-0.192545 13.8545 0.181437 14.5 0.781367 14.5ZM8.78303 12.167H7.22477V10.6116H8.78303V12.167ZM8.0039 9.05624C7.57538 9.05624 7.22477 8.70628 7.22477 8.27855V6.72319C7.22477 6.29547 7.57538 5.94551 8.0039 5.94551C8.43242 5.94551 8.78303 6.29547 8.78303 6.72319V8.27855C8.78303 8.70628 8.43242 9.05624 8.0039 9.05624Z" fill="#002657"/>
</svg>
