<svg width="14" height="15" viewBox="0 0 14 15" fill="none" xmlns="http://www.w3.org/2000/svg">
<path d="M5.91111 10.7667L11.3944 5.28333L10.3056 4.19445L5.91111 8.58889L3.69445 6.37222L2.60556 7.46111L5.91111 10.7667ZM1.55556 14.5C1.12778 14.5 0.761445 14.3476 0.456557 14.0427C0.151668 13.7378 -0.000517198 13.3717 1.32051e-06 12.9444V2.05556C1.32051e-06 1.62778 0.152446 1.26145 0.457335 0.956557C0.762223 0.651668 1.1283 0.499483 1.55556 0.500001H12.4444C12.8722 0.500001 13.2386 0.652446 13.5434 0.957335C13.8483 1.26222 14.0005 1.6283 14 2.05556V12.9444C14 13.3722 13.8476 13.7386 13.5427 14.0434C13.2378 14.3483 12.8717 14.5005 12.4444 14.5H1.55556Z" fill="#002657"/>
</svg>
